<svg width="37" height="37" viewBox="0 0 37 37" fill="none" xmlns="http://www.w3.org/2000/svg">
<path d="M36.7448 35.849C36.6208 36.0711 36.4424 36.2555 36.2276 36.3837C36.0128 36.5119 35.7691 36.5794 35.5211 36.5793H1.61586C1.368 36.5791 1.12457 36.5114 0.910007 36.3831C0.695449 36.2548 0.517316 36.0704 0.393496 35.8484C0.269676 35.6264 0.204526 35.3746 0.20459 35.1183C0.204654 34.8621 0.269928 34.6103 0.393858 34.3884C3.08332 29.5812 7.22787 26.1341 12.0647 24.5C9.67217 23.0275 7.81335 20.7837 6.77366 18.1131C5.73398 15.4426 5.57091 12.4931 6.3095 9.71747C7.0481 6.94185 8.64752 4.49365 10.8621 2.74882C13.0768 1.00399 15.7841 0.059021 18.5685 0.059021C21.3528 0.059021 24.0602 1.00399 26.2748 2.74882C28.4894 4.49365 30.0888 6.94185 30.8274 9.71747C31.566 12.4931 31.4029 15.4426 30.3633 18.1131C29.3236 20.7837 27.4647 23.0275 25.0723 24.5C29.909 26.1341 34.0536 29.5812 36.7431 34.3884C36.8673 34.6103 36.9329 34.8621 36.9332 35.1185C36.9335 35.3749 36.8685 35.6268 36.7448 35.849Z" fill="#111827"/>
</svg>
