<svg width="35" height="30" viewBox="0 0 35 30" fill="none" xmlns="http://www.w3.org/2000/svg">
<path d="M29.1643 0.48822C30.5484 0.48822 31.8757 1.08293 32.8544 2.14151C33.833 3.20009 34.3829 4.63584 34.3829 6.1329V24.1959C34.3829 25.6929 33.833 27.1287 32.8544 28.1873C31.8757 29.2458 30.5484 29.8406 29.1643 29.8406H6.20289C4.81885 29.8406 3.4915 29.2458 2.51284 28.1873C1.53418 27.1287 0.984375 25.6929 0.984375 24.1959V6.1329C0.984375 4.63584 1.53418 3.20009 2.51284 2.14151C3.4915 1.08293 4.81885 0.48822 6.20289 0.48822H29.1643ZM32.2955 9.43165L18.2138 18.3954C18.0807 18.4799 17.9319 18.5315 17.7781 18.5463C17.6243 18.5612 17.4694 18.5389 17.3246 18.4812L17.1534 18.3954L3.07178 9.43617V24.1959C3.07178 25.0941 3.40166 25.9556 3.98886 26.5907C4.57606 27.2259 5.37247 27.5827 6.20289 27.5827H29.1643C29.9948 27.5827 30.7912 27.2259 31.3784 26.5907C31.9656 25.9556 32.2955 25.0941 32.2955 24.1959V9.43165ZM29.1643 2.74609H6.20289C5.37247 2.74609 4.57606 3.10291 3.98886 3.73806C3.40166 4.37321 3.07178 5.23466 3.07178 6.1329V6.81478L17.6836 16.1127L32.2955 6.81026V6.1329C32.2955 5.23466 31.9656 4.37321 31.3784 3.73806C30.7912 3.10291 29.9948 2.74609 29.1643 2.74609Z" fill="#111827"/>
</svg>
